<svg xmlns="http://www.w3.org/2000/svg" xmlns:xlink="http://www.w3.org/1999/xlink" width="500" zoomAndPan="magnify" viewBox="0 0 375 374.999991" height="500" preserveAspectRatio="xMidYMid meet" version="1.0"><defs><g/><clipPath id="0144504ef9"><path d="M 66.933594 37 L 308 37 L 308 270 L 66.933594 270 Z M 66.933594 37 " clip-rule="nonzero"/></clipPath><clipPath id="1eeadfd82d"><path d="M 79 26 L 139.113281 26 L 139.113281 86.25 L 79 86.25 Z M 79 26 " clip-rule="nonzero"/></clipPath><clipPath id="7a9e971de5"><path d="M 75.363281 0 L 107 0 L 107 32 L 75.363281 32 Z M 75.363281 0 " clip-rule="nonzero"/></clipPath><clipPath id="7a41cefd77"><path d="M 120 14 L 139.113281 14 L 139.113281 34 L 120 34 Z M 120 14 " clip-rule="nonzero"/></clipPath><clipPath id="fa952fad75"><path d="M 38 86 L 75.636719 86 L 75.636719 123.253906 L 38 123.253906 Z M 38 86 " clip-rule="nonzero"/></clipPath><clipPath id="9644e899be"><path d="M 35.886719 70.003906 L 56 70.003906 L 56 90 L 35.886719 90 Z M 35.886719 70.003906 " clip-rule="nonzero"/></clipPath><clipPath id="114253f61e"><path d="M 63 78 L 75.636719 78 L 75.636719 91 L 63 91 Z M 63 78 " clip-rule="nonzero"/></clipPath></defs><g clip-path="url(#0144504ef9)"><path fill="#f0dfc9" d="M 303.667969 47.238281 C 247.488281 61.707031 252.636719 120.21875 257.589844 176.792969 C 261.234375 218.402344 264.679688 257.703125 238.164062 269.53125 C 237.5 269.824219 236.792969 269.960938 236.109375 269.960938 C 234.210938 269.960938 232.371094 268.867188 231.527344 266.984375 C 230.410156 264.460938 231.546875 261.503906 234.074219 260.367188 C 254.066406 251.457031 250.933594 215.621094 247.605469 177.671875 C 243.902344 135.414062 239.535156 85.246094 266.8125 56.695312 C 216.292969 68.167969 214.511719 124.214844 212.789062 178.574219 C 211.28125 225.570312 209.871094 269.960938 170.902344 269.960938 C 121.632812 269.960938 66.804688 236.808594 66.804688 214.347656 C 66.804688 201.113281 72.777344 195.785156 77.125 191.890625 C 80.453125 188.933594 81.941406 187.445312 81.941406 183.703125 C 81.941406 178.082031 85.933594 174.714844 90.753906 173.34375 C 90.65625 168.507812 91.203125 162.789062 93.867188 159.832031 C 95.238281 158.324219 97.078125 157.484375 99.054688 157.484375 L 100.132812 157.503906 C 100.894531 157.503906 101.894531 157.523438 102.597656 157.464844 C 102.597656 157.425781 102.597656 157.40625 102.597656 157.386719 C 102.597656 155.9375 102.421875 154.195312 102.246094 152.351562 C 101.621094 145.890625 100.835938 137.824219 105.476562 132.710938 C 107.90625 130.027344 111.332031 128.679688 115.640625 128.679688 C 127.371094 128.679688 149.558594 125.742188 149.558594 114.636719 C 149.558594 95.644531 193.382812 74.082031 207.480469 74.082031 C 210.242188 74.082031 212.492188 76.335938 212.492188 79.097656 C 212.492188 81.878906 210.242188 84.109375 207.480469 84.109375 C 195.847656 84.109375 159.582031 103.945312 159.582031 114.636719 C 159.582031 132.378906 136.886719 138.703125 115.640625 138.703125 C 114.269531 138.703125 113.351562 138.957031 112.898438 139.449219 C 111.234375 141.289062 111.824219 147.359375 112.214844 151.394531 C 112.429688 153.585938 112.625 155.640625 112.625 157.386719 C 112.625 160.519531 111.703125 163.003906 109.921875 164.769531 C 107.417969 167.273438 104.046875 167.527344 101.128906 167.527344 C 100.796875 169.332031 100.71875 172.484375 100.914062 175.539062 C 103.871094 179.53125 107.160156 183.253906 110.785156 186.601562 C 112.820312 188.460938 112.957031 191.652344 111.078125 193.671875 C 110.097656 194.746094 108.75 195.296875 107.398438 195.296875 C 106.183594 195.296875 104.949219 194.863281 103.988281 193.984375 C 100.347656 190.617188 97.039062 186.855469 93.984375 182.921875 C 93.023438 183.136719 92.183594 183.429688 91.964844 183.703125 C 91.964844 192.105469 87.441406 196.136719 83.800781 199.367188 C 79.902344 202.855469 76.828125 205.597656 76.828125 214.347656 C 76.828125 228.683594 124.042969 259.9375 170.902344 259.9375 C 198.746094 259.9375 201.136719 228.898438 202.761719 178.257812 C 204.621094 119.964844 206.953125 47.550781 282.734375 44.652344 C 288.121094 41.734375 294.210938 39.304688 301.160156 37.523438 C 303.824219 36.839844 306.566406 38.445312 307.269531 41.125 C 307.957031 43.808594 306.332031 46.53125 303.667969 47.238281 " fill-opacity="1" fill-rule="nonzero"/></g><path fill="#f0dfc9" d="M 165.339844 123.957031 C 175.03125 123.722656 183.902344 128.1875 189.542969 135.824219 C 193.578125 141.269531 195.613281 148.003906 195.242188 154.78125 C 195.085938 157.445312 192.871094 159.519531 190.25 159.519531 C 190.152344 159.519531 190.050781 159.519531 189.972656 159.519531 C 187.195312 159.363281 185.078125 156.992188 185.234375 154.234375 C 185.46875 149.789062 184.140625 145.363281 181.496094 141.777344 C 177.773438 136.746094 171.625 133.847656 165.574219 133.984375 C 162.734375 133.867188 160.523438 131.871094 160.445312 129.089844 C 160.386719 126.328125 162.578125 124.035156 165.339844 123.957031 " fill-opacity="1" fill-rule="nonzero"/><path fill="#f0dfc9" d="M 168.375 154.488281 C 171.175781 156.738281 174.542969 158.796875 176.363281 159.34375 C 179.007812 160.164062 180.496094 162.964844 179.675781 165.609375 C 179.007812 167.765625 177.03125 169.152344 174.875 169.152344 C 174.386719 169.152344 173.898438 169.074219 173.40625 168.917969 C 169.746094 167.804688 165.164062 164.769531 162.109375 162.320312 C 158.78125 159.65625 155.492188 156.132812 153.492188 153.117188 C 151.984375 150.804688 152.632812 147.691406 154.941406 146.183594 C 157.234375 144.65625 160.347656 145.304688 161.875 147.613281 C 163.285156 149.730469 165.886719 152.507812 168.375 154.488281 " fill-opacity="1" fill-rule="nonzero"/><g clip-path="url(#1eeadfd82d)"><path fill="#f0dfc9" d="M 139.238281 56.503906 C 113.210938 58.527344 111.566406 60.171875 109.542969 86.199219 C 107.511719 60.171875 105.871094 58.527344 79.847656 56.503906 C 105.871094 54.476562 107.511719 52.832031 109.542969 26.808594 C 111.566406 52.832031 113.210938 54.476562 139.238281 56.503906 " fill-opacity="1" fill-rule="nonzero"/></g><g clip-path="url(#7a9e971de5)"><path fill="#f0dfc9" d="M 106.484375 15.558594 C 92.855469 16.621094 91.992188 17.484375 90.929688 31.113281 C 89.871094 17.484375 89.007812 16.621094 75.378906 15.558594 C 89.007812 14.496094 89.871094 13.636719 90.929688 0.00390625 C 91.992188 13.636719 92.855469 14.496094 106.484375 15.558594 " fill-opacity="1" fill-rule="nonzero"/></g><g clip-path="url(#7a41cefd77)"><path fill="#f0dfc9" d="M 139.273438 23.980469 C 130.84375 24.636719 130.3125 25.167969 129.65625 33.59375 C 129 25.167969 128.46875 24.636719 120.039062 23.980469 C 128.46875 23.320312 129 22.789062 129.65625 14.363281 C 130.3125 22.789062 130.84375 23.320312 139.273438 23.980469 " fill-opacity="1" fill-rule="nonzero"/></g><g clip-path="url(#fa952fad75)"><path fill="#f0dfc9" d="M 75.339844 104.90625 C 59.261719 106.160156 58.246094 107.171875 56.996094 123.25 C 55.742188 107.171875 54.726562 106.160156 38.652344 104.90625 C 54.726562 103.65625 55.742188 102.640625 56.996094 86.5625 C 58.246094 102.640625 59.261719 103.65625 75.339844 104.90625 " fill-opacity="1" fill-rule="nonzero"/></g><g clip-path="url(#9644e899be)"><path fill="#f0dfc9" d="M 55.109375 79.617188 C 46.6875 80.269531 46.15625 80.804688 45.5 89.222656 C 44.84375 80.804688 44.3125 80.269531 35.890625 79.617188 C 44.3125 78.960938 44.84375 78.429688 45.5 70.007812 C 46.15625 78.429688 46.6875 78.960938 55.109375 79.617188 " fill-opacity="1" fill-rule="nonzero"/></g><g clip-path="url(#114253f61e)"><path fill="#f0dfc9" d="M 75.363281 84.816406 C 70.15625 85.222656 69.828125 85.550781 69.421875 90.757812 C 69.015625 85.550781 68.6875 85.222656 63.480469 84.816406 C 68.6875 84.410156 69.015625 84.082031 69.421875 78.875 C 69.828125 84.082031 70.15625 84.410156 75.363281 84.816406 " fill-opacity="1" fill-rule="nonzero"/></g><g fill="#f0dfc9" fill-opacity="1"><g transform="translate(10.999554, 355.659855)"><g><path d="M 22.765625 0.40625 L 10.15625 0.40625 C 8.96875 0.40625 7.945312 0.046875 7.09375 -0.671875 C 6.238281 -1.390625 5.703125 -2.289062 5.484375 -3.375 C 5.460938 -3.457031 5.441406 -3.535156 5.421875 -3.609375 C 5.410156 -3.691406 5.40625 -3.773438 5.40625 -3.859375 L 5.40625 -46.78125 C 5.351562 -47.34375 5.269531 -47.882812 5.15625 -48.40625 C 5.101562 -48.675781 5.054688 -48.929688 5.015625 -49.171875 C 4.972656 -49.421875 4.953125 -49.664062 4.953125 -49.90625 C 4.953125 -50.550781 5.171875 -51.023438 5.609375 -51.328125 C 5.847656 -51.492188 6.1875 -51.625 6.625 -51.71875 C 7.0625 -51.8125 7.617188 -51.859375 8.296875 -51.859375 L 22.765625 -51.859375 C 25.140625 -51.859375 27.4375 -51.546875 29.65625 -50.921875 C 31.882812 -50.296875 33.972656 -49.414062 35.921875 -48.28125 C 39.847656 -45.976562 42.992188 -42.847656 45.359375 -38.890625 C 46.492188 -36.941406 47.375 -34.851562 48 -32.625 C 48.625 -30.40625 48.9375 -28.101562 48.9375 -25.71875 C 48.9375 -23.3125 48.625 -20.992188 48 -18.765625 C 47.375 -16.546875 46.492188 -14.476562 45.359375 -12.5625 C 44.191406 -10.601562 42.804688 -8.832031 41.203125 -7.25 C 39.609375 -5.664062 37.847656 -4.304688 35.921875 -3.171875 C 33.972656 -2.035156 31.882812 -1.15625 29.65625 -0.53125 C 27.4375 0.09375 25.140625 0.40625 22.765625 0.40625 Z M 39.34375 -25.71875 C 39.34375 -28.164062 38.90625 -30.421875 38.03125 -32.484375 C 37.164062 -34.554688 35.976562 -36.351562 34.46875 -37.875 C 32.976562 -39.394531 31.222656 -40.585938 29.203125 -41.453125 C 27.179688 -42.316406 25.035156 -42.765625 22.765625 -42.796875 L 14.953125 -42.796875 L 14.953125 -9.015625 L 22.765625 -9.015625 C 25.035156 -9.078125 27.179688 -9.539062 29.203125 -10.40625 C 31.222656 -11.269531 32.976562 -12.445312 34.46875 -13.9375 C 35.976562 -15.40625 37.164062 -17.144531 38.03125 -19.15625 C 38.90625 -21.175781 39.34375 -23.363281 39.34375 -25.71875 Z M 39.34375 -25.71875 "/></g></g></g><g fill="#f0dfc9" fill-opacity="1"><g transform="translate(62.383291, 355.659855)"><g><path d="M 22.5625 0.40625 C 19.789062 0.40625 17.195312 -0.117188 14.78125 -1.171875 C 12.375 -2.234375 10.25 -3.671875 8.40625 -5.484375 C 6.59375 -7.273438 5.148438 -9.390625 4.078125 -11.828125 C 3.015625 -14.265625 2.484375 -16.863281 2.484375 -19.625 C 2.484375 -22.550781 3.023438 -25.238281 4.109375 -27.6875 C 5.191406 -30.144531 6.664062 -32.269531 8.53125 -34.0625 C 10.40625 -35.820312 12.570312 -37.203125 15.03125 -38.203125 C 17.5 -39.203125 20.113281 -39.703125 22.875 -39.703125 C 25.644531 -39.703125 28.226562 -39.210938 30.625 -38.234375 C 33.019531 -37.265625 35.113281 -35.910156 36.90625 -34.171875 C 38.6875 -32.441406 40.09375 -30.382812 41.125 -28 C 42.15625 -25.613281 42.671875 -23.023438 42.671875 -20.234375 C 42.671875 -18.878906 42.316406 -17.972656 41.609375 -17.515625 C 40.910156 -17.054688 39.707031 -16.828125 38 -16.828125 L 12.3125 -16.828125 C 12.425781 -15.578125 12.769531 -14.394531 13.34375 -13.28125 C 13.925781 -12.175781 14.679688 -11.191406 15.609375 -10.328125 C 16.523438 -9.484375 17.578125 -8.796875 18.765625 -8.265625 C 19.960938 -7.742188 21.238281 -7.484375 22.59375 -7.484375 C 25.28125 -7.484375 27.640625 -8.347656 29.671875 -10.078125 C 30.234375 -10.398438 30.90625 -10.570312 31.6875 -10.59375 C 32.476562 -10.625 33.238281 -10.503906 33.96875 -10.234375 C 34.707031 -9.960938 35.332031 -9.519531 35.84375 -8.90625 C 36.351562 -8.300781 36.609375 -7.539062 36.609375 -6.625 C 36.609375 -5.570312 36.175781 -4.617188 35.3125 -3.765625 C 34.445312 -2.910156 33.335938 -2.171875 31.984375 -1.546875 C 30.628906 -0.953125 29.109375 -0.476562 27.421875 -0.125 C 25.742188 0.226562 24.125 0.40625 22.5625 0.40625 Z M 22.875 -31.90625 C 21.550781 -31.90625 20.28125 -31.671875 19.0625 -31.203125 C 17.84375 -30.742188 16.757812 -30.109375 15.8125 -29.296875 C 14.863281 -28.484375 14.070312 -27.53125 13.4375 -26.4375 C 12.800781 -25.34375 12.398438 -24.144531 12.234375 -22.84375 L 33 -22.84375 C 32.894531 -24.144531 32.550781 -25.34375 31.96875 -26.4375 C 31.382812 -27.53125 30.644531 -28.484375 29.75 -29.296875 C 28.820312 -30.109375 27.769531 -30.742188 26.59375 -31.203125 C 25.414062 -31.671875 24.175781 -31.90625 22.875 -31.90625 Z M 22.875 -31.90625 "/></g></g></g><g fill="#f0dfc9" fill-opacity="1"><g transform="translate(107.511606, 355.659855)"><g><path d="M 29.0625 -38.6875 C 30.113281 -38.3125 31.003906 -37.753906 31.734375 -37.015625 C 32.472656 -36.285156 32.84375 -35.351562 32.84375 -34.21875 C 32.84375 -33.457031 32.644531 -32.769531 32.25 -32.15625 C 31.851562 -31.550781 31.375 -31.085938 30.8125 -30.765625 C 30.207031 -30.410156 29.59375 -30.195312 28.96875 -30.125 C 28.351562 -30.0625 27.488281 -30.054688 26.375 -30.109375 C 25.9375 -30.140625 25.488281 -30.164062 25.03125 -30.1875 C 24.570312 -30.21875 24.113281 -30.25 23.65625 -30.28125 C 22.726562 -30.332031 21.8125 -30.207031 20.90625 -29.90625 C 20 -29.613281 19.15625 -29.179688 18.375 -28.609375 C 16.820312 -27.472656 15.65625 -25.890625 14.875 -23.859375 C 14.519531 -22.859375 14.273438 -21.800781 14.140625 -20.6875 L 14.140625 -4.390625 C 14.140625 -3.710938 14.007812 -3.082031 13.75 -2.5 C 13.5 -1.914062 13.15625 -1.40625 12.71875 -0.96875 C 11.800781 -0.0507812 10.675781 0.40625 9.34375 0.40625 C 7.988281 0.40625 6.851562 -0.0507812 5.9375 -0.96875 C 5.007812 -1.894531 4.546875 -3.035156 4.546875 -4.390625 L 4.546875 -37.109375 C 4.546875 -38.835938 5.414062 -39.703125 7.15625 -39.703125 C 8.15625 -39.703125 9.019531 -39.359375 9.75 -38.671875 C 10.476562 -37.984375 11.019531 -36.753906 11.375 -34.984375 L 11.75 -33.453125 C 12.207031 -33.992188 12.75 -34.535156 13.375 -35.078125 C 14 -35.617188 14.6875 -36.144531 15.4375 -36.65625 C 16.414062 -37.3125 17.488281 -37.890625 18.65625 -38.390625 C 19.820312 -38.890625 21.066406 -39.25 22.390625 -39.46875 C 23.335938 -39.539062 24.414062 -39.523438 25.625 -39.421875 C 26.832031 -39.316406 27.976562 -39.070312 29.0625 -38.6875 Z M 29.0625 -38.6875 "/></g></g></g><g fill="#f0dfc9" fill-opacity="1"><g transform="translate(142.078872, 355.659855)"><g><path d="M 26.578125 -21.578125 L 14.515625 -36.9375 C 14.515625 -33.90625 14.515625 -30.953125 14.515625 -28.078125 C 14.515625 -25.210938 14.523438 -22.410156 14.546875 -19.671875 L 14.546875 -4.390625 C 14.546875 -3.035156 14.097656 -1.910156 13.203125 -1.015625 C 12.773438 -0.578125 12.269531 -0.234375 11.6875 0.015625 C 11.101562 0.273438 10.457031 0.40625 9.75 0.40625 C 8.375 0.40625 7.25 -0.0507812 6.375 -0.96875 C 5.457031 -1.894531 5 -3.035156 5 -4.390625 L 5 -36.453125 C 5 -38.265625 5 -40.03125 5 -41.75 C 5 -43.476562 4.984375 -45.140625 4.953125 -46.734375 C 4.953125 -47.035156 4.929688 -47.3125 4.890625 -47.5625 C 4.859375 -47.820312 4.8125 -48.078125 4.75 -48.328125 C 4.59375 -48.785156 4.515625 -49.296875 4.515625 -49.859375 C 4.515625 -50.160156 4.550781 -50.429688 4.625 -50.671875 C 4.707031 -50.921875 4.875 -51.140625 5.125 -51.328125 C 5.363281 -51.492188 5.695312 -51.625 6.125 -51.71875 C 6.5625 -51.8125 7.148438 -51.859375 7.890625 -51.859375 C 8.671875 -51.859375 9.332031 -51.84375 9.875 -51.8125 C 10.414062 -51.789062 10.90625 -51.722656 11.34375 -51.609375 C 12.070312 -51.421875 12.816406 -50.9375 13.578125 -50.15625 L 30.40625 -29.59375 C 32.707031 -32.40625 34.703125 -34.835938 36.390625 -36.890625 C 38.085938 -38.953125 39.519531 -40.726562 40.6875 -42.21875 C 41.875 -43.6875 42.832031 -44.894531 43.5625 -45.84375 C 44.289062 -46.789062 44.875 -47.5625 45.3125 -48.15625 C 45.53125 -48.457031 45.710938 -48.710938 45.859375 -48.921875 C 46.015625 -49.140625 46.144531 -49.316406 46.25 -49.453125 C 46.4375 -49.753906 46.597656 -49.992188 46.734375 -50.171875 C 46.867188 -50.347656 47.03125 -50.554688 47.21875 -50.796875 C 47.601562 -51.253906 48.242188 -51.566406 49.140625 -51.734375 C 49.597656 -51.816406 50.148438 -51.859375 50.796875 -51.859375 C 52.128906 -51.859375 53.140625 -51.578125 53.828125 -51.015625 C 54.515625 -50.460938 55.007812 -49.738281 55.3125 -48.84375 C 55.613281 -47.957031 55.769531 -46.9375 55.78125 -45.78125 C 55.789062 -44.625 55.796875 -43.46875 55.796875 -42.3125 L 55.796875 -4.390625 C 55.796875 -3.054688 55.363281 -1.929688 54.5 -1.015625 C 54.0625 -0.578125 53.546875 -0.234375 52.953125 0.015625 C 52.359375 0.273438 51.707031 0.40625 51 0.40625 C 50.507812 0.40625 49.988281 0.3125 49.4375 0.125 C 48.882812 -0.0625 48.378906 -0.359375 47.921875 -0.765625 C 47.429688 -1.148438 47.035156 -1.640625 46.734375 -2.234375 C 46.441406 -2.828125 46.296875 -3.546875 46.296875 -4.390625 L 46.296875 -36.859375 L 34.421875 -21.578125 C 33.796875 -20.816406 33.171875 -20.171875 32.546875 -19.640625 C 31.929688 -19.117188 31.253906 -18.859375 30.515625 -18.859375 C 29.703125 -18.859375 29.023438 -19.09375 28.484375 -19.5625 C 27.941406 -20.039062 27.304688 -20.710938 26.578125 -21.578125 Z M 26.578125 -21.578125 "/></g></g></g><g fill="#f0dfc9" fill-opacity="1"><g transform="translate(202.277085, 355.659855)"><g><path d="M 40.15625 -39.671875 C 41.882812 -39.671875 42.75 -38.800781 42.75 -37.0625 L 42.75 -2.640625 C 42.75 -0.578125 41.757812 0.453125 39.78125 0.453125 C 38.78125 0.453125 37.960938 0.160156 37.328125 -0.421875 C 36.691406 -1.003906 36.222656 -1.769531 35.921875 -2.71875 L 35.3125 -5.078125 C 33.820312 -3.367188 32.003906 -2.019531 29.859375 -1.03125 C 27.722656 -0.0390625 25.328125 0.453125 22.671875 0.453125 C 19.910156 0.453125 17.320312 -0.0703125 14.90625 -1.125 C 12.5 -2.1875 10.375 -3.628906 8.53125 -5.453125 C 6.71875 -7.265625 5.273438 -9.390625 4.203125 -11.828125 C 3.128906 -14.265625 2.59375 -16.863281 2.59375 -19.625 C 2.59375 -22.394531 3.128906 -24.988281 4.203125 -27.40625 C 5.273438 -29.832031 6.71875 -31.953125 8.53125 -33.765625 C 10.375 -35.585938 12.5 -37.023438 14.90625 -38.078125 C 17.320312 -39.140625 19.910156 -39.671875 22.671875 -39.671875 C 25.410156 -39.671875 27.863281 -39.144531 30.03125 -38.09375 C 32.195312 -37.050781 34.039062 -35.640625 35.5625 -33.859375 L 35.921875 -34.953125 C 36.242188 -36.660156 36.78125 -37.875 37.53125 -38.59375 C 38.28125 -39.3125 39.15625 -39.671875 40.15625 -39.671875 Z M 30.078125 -11.984375 C 31.023438 -12.960938 31.757812 -14.109375 32.28125 -15.421875 C 32.8125 -16.734375 33.078125 -18.132812 33.078125 -19.625 C 33.078125 -21.09375 32.8125 -22.484375 32.28125 -23.796875 C 31.757812 -25.109375 31.023438 -26.253906 30.078125 -27.234375 C 29.148438 -28.203125 28.050781 -28.972656 26.78125 -29.546875 C 25.507812 -30.117188 24.140625 -30.40625 22.671875 -30.40625 C 21.210938 -30.40625 19.851562 -30.117188 18.59375 -29.546875 C 17.332031 -28.972656 16.226562 -28.203125 15.28125 -27.234375 C 14.363281 -26.253906 13.632812 -25.109375 13.09375 -23.796875 C 12.550781 -22.484375 12.28125 -21.09375 12.28125 -19.625 C 12.28125 -18.132812 12.550781 -16.734375 13.09375 -15.421875 C 13.632812 -14.109375 14.363281 -12.960938 15.28125 -11.984375 C 16.226562 -11.015625 17.332031 -10.242188 18.59375 -9.671875 C 19.851562 -9.097656 21.210938 -8.8125 22.671875 -8.8125 C 24.140625 -8.8125 25.507812 -9.097656 26.78125 -9.671875 C 28.050781 -10.242188 29.148438 -11.015625 30.078125 -11.984375 Z M 30.078125 -11.984375 "/></g></g></g><g fill="#f0dfc9" fill-opacity="1"><g transform="translate(249.964453, 355.659855)"><g><path d="M 24.265625 7.390625 C 27.734375 7.285156 30.222656 6.109375 31.734375 3.859375 C 33.253906 1.609375 33.878906 -1.734375 33.609375 -6.171875 C 33.253906 -5.304688 32.691406 -4.476562 31.921875 -3.6875 C 31.148438 -2.90625 30.207031 -2.203125 29.09375 -1.578125 C 28.007812 -0.960938 26.796875 -0.46875 25.453125 -0.09375 C 24.117188 0.269531 22.75 0.453125 21.34375 0.453125 C 18.570312 0.453125 16.039062 -0.0703125 13.75 -1.125 C 11.46875 -2.1875 9.484375 -3.628906 7.796875 -5.453125 C 6.148438 -7.265625 4.859375 -9.390625 3.921875 -11.828125 C 2.984375 -14.265625 2.515625 -16.863281 2.515625 -19.625 C 2.515625 -22.394531 2.984375 -24.988281 3.921875 -27.40625 C 4.859375 -29.832031 6.148438 -31.953125 7.796875 -33.765625 C 9.484375 -35.585938 11.46875 -37.023438 13.75 -38.078125 C 16.039062 -39.140625 18.570312 -39.671875 21.34375 -39.671875 C 22.96875 -39.671875 24.53125 -39.453125 26.03125 -39.015625 C 27.53125 -38.578125 28.90625 -38.019531 30.15625 -37.34375 C 31.425781 -36.664062 32.546875 -35.898438 33.515625 -35.046875 C 34.492188 -34.191406 35.296875 -33.359375 35.921875 -32.546875 C 36.109375 -34.847656 36.539062 -36.601562 37.21875 -37.8125 C 37.90625 -39.019531 38.800781 -39.625 39.90625 -39.625 C 40.445312 -39.625 40.90625 -39.460938 41.28125 -39.140625 C 41.664062 -38.816406 41.953125 -38.410156 42.140625 -37.921875 C 42.359375 -37.398438 42.5 -36.832031 42.5625 -36.21875 C 42.632812 -35.613281 42.671875 -35.03125 42.671875 -34.46875 L 42.671875 -3.453125 C 42.671875 -0.234375 42.160156 2.59375 41.140625 5.03125 C 40.128906 7.476562 38.785156 9.515625 37.109375 11.140625 C 35.421875 12.765625 33.488281 13.984375 31.3125 14.796875 C 29.132812 15.609375 26.878906 16.015625 24.546875 16.015625 C 23.109375 16.015625 21.738281 15.90625 20.4375 15.6875 C 19.132812 15.46875 17.984375 15.113281 16.984375 14.625 C 15.984375 14.164062 15.191406 13.578125 14.609375 12.859375 C 14.023438 12.140625 13.734375 11.296875 13.734375 10.328125 C 13.734375 9.722656 13.851562 9.175781 14.09375 8.6875 C 14.34375 8.207031 14.671875 7.804688 15.078125 7.484375 C 15.453125 7.148438 15.90625 6.910156 16.4375 6.765625 C 16.96875 6.617188 17.515625 6.554688 18.078125 6.578125 C 18.597656 6.640625 19.09375 6.71875 19.5625 6.8125 C 20.039062 6.90625 20.507812 7.003906 20.96875 7.109375 C 21.425781 7.222656 21.929688 7.304688 22.484375 7.359375 C 23.046875 7.410156 23.640625 7.421875 24.265625 7.390625 Z M 12.234375 -19.625 C 12.234375 -18.132812 12.46875 -16.734375 12.9375 -15.421875 C 13.414062 -14.109375 14.101562 -12.960938 15 -11.984375 C 15.863281 -11.015625 16.90625 -10.242188 18.125 -9.671875 C 19.34375 -9.097656 20.6875 -8.8125 22.15625 -8.8125 C 23.613281 -8.8125 25 -9.097656 26.3125 -9.671875 C 27.625 -10.242188 28.785156 -11.015625 29.796875 -11.984375 C 30.765625 -12.960938 31.539062 -14.109375 32.125 -15.421875 C 32.707031 -16.734375 33 -18.132812 33 -19.625 C 33 -21.0625 32.703125 -22.429688 32.109375 -23.734375 C 31.515625 -25.035156 30.726562 -26.1875 29.75 -27.1875 C 28.75 -28.164062 27.585938 -28.945312 26.265625 -29.53125 C 24.953125 -30.113281 23.582031 -30.40625 22.15625 -30.40625 C 20.6875 -30.40625 19.34375 -30.117188 18.125 -29.546875 C 16.90625 -28.972656 15.863281 -28.203125 15 -27.234375 C 14.101562 -26.253906 13.414062 -25.109375 12.9375 -23.796875 C 12.46875 -22.484375 12.234375 -21.09375 12.234375 -19.625 Z M 12.234375 -19.625 "/></g></g></g><g fill="#f0dfc9" fill-opacity="1"><g transform="translate(297.651822, 355.659855)"><g><path d="M 4.0625 -49.984375 C 4.0625 -51.472656 4.578125 -52.707031 5.609375 -53.6875 C 6.609375 -54.6875 7.851562 -55.1875 9.34375 -55.1875 C 10.070312 -55.1875 10.753906 -55.050781 11.390625 -54.78125 C 12.035156 -54.507812 12.601562 -54.144531 13.09375 -53.6875 C 14.113281 -52.707031 14.625 -51.472656 14.625 -49.984375 C 14.625 -48.492188 14.113281 -47.265625 13.09375 -46.296875 C 12.0625 -45.316406 10.8125 -44.828125 9.34375 -44.828125 C 7.832031 -44.828125 6.585938 -45.316406 5.609375 -46.296875 C 4.578125 -47.265625 4.0625 -48.492188 4.0625 -49.984375 Z M 4.546875 -4.390625 L 4.546875 -34.984375 C 4.546875 -36.316406 5.007812 -37.441406 5.9375 -38.359375 C 6.800781 -39.285156 7.925781 -39.75 9.3125 -39.75 C 10.632812 -39.75 11.757812 -39.285156 12.6875 -38.359375 C 13.113281 -37.929688 13.457031 -37.425781 13.71875 -36.84375 C 13.976562 -36.257812 14.109375 -35.640625 14.109375 -34.984375 L 14.109375 -4.390625 C 14.109375 -3.710938 13.976562 -3.082031 13.71875 -2.5 C 13.457031 -1.914062 13.113281 -1.40625 12.6875 -0.96875 C 11.757812 -0.0507812 10.632812 0.40625 9.3125 0.40625 C 7.925781 0.40625 6.800781 -0.0507812 5.9375 -0.96875 C 5.007812 -1.894531 4.546875 -3.035156 4.546875 -4.390625 Z M 4.546875 -4.390625 "/></g></g></g><g fill="#f0dfc9" fill-opacity="1"><g transform="translate(316.296202, 355.659855)"><g><path d="M 40.15625 -39.671875 C 41.882812 -39.671875 42.75 -38.800781 42.75 -37.0625 L 42.75 -2.640625 C 42.75 -0.578125 41.757812 0.453125 39.78125 0.453125 C 38.78125 0.453125 37.960938 0.160156 37.328125 -0.421875 C 36.691406 -1.003906 36.222656 -1.769531 35.921875 -2.71875 L 35.3125 -5.078125 C 33.820312 -3.367188 32.003906 -2.019531 29.859375 -1.03125 C 27.722656 -0.0390625 25.328125 0.453125 22.671875 0.453125 C 19.910156 0.453125 17.320312 -0.0703125 14.90625 -1.125 C 12.5 -2.1875 10.375 -3.628906 8.53125 -5.453125 C 6.71875 -7.265625 5.273438 -9.390625 4.203125 -11.828125 C 3.128906 -14.265625 2.59375 -16.863281 2.59375 -19.625 C 2.59375 -22.394531 3.128906 -24.988281 4.203125 -27.40625 C 5.273438 -29.832031 6.71875 -31.953125 8.53125 -33.765625 C 10.375 -35.585938 12.5 -37.023438 14.90625 -38.078125 C 17.320312 -39.140625 19.910156 -39.671875 22.671875 -39.671875 C 25.410156 -39.671875 27.863281 -39.144531 30.03125 -38.09375 C 32.195312 -37.050781 34.039062 -35.640625 35.5625 -33.859375 L 35.921875 -34.953125 C 36.242188 -36.660156 36.78125 -37.875 37.53125 -38.59375 C 38.28125 -39.3125 39.15625 -39.671875 40.15625 -39.671875 Z M 30.078125 -11.984375 C 31.023438 -12.960938 31.757812 -14.109375 32.28125 -15.421875 C 32.8125 -16.734375 33.078125 -18.132812 33.078125 -19.625 C 33.078125 -21.09375 32.8125 -22.484375 32.28125 -23.796875 C 31.757812 -25.109375 31.023438 -26.253906 30.078125 -27.234375 C 29.148438 -28.203125 28.050781 -28.972656 26.78125 -29.546875 C 25.507812 -30.117188 24.140625 -30.40625 22.671875 -30.40625 C 21.210938 -30.40625 19.851562 -30.117188 18.59375 -29.546875 C 17.332031 -28.972656 16.226562 -28.203125 15.28125 -27.234375 C 14.363281 -26.253906 13.632812 -25.109375 13.09375 -23.796875 C 12.550781 -22.484375 12.28125 -21.09375 12.28125 -19.625 C 12.28125 -18.132812 12.550781 -16.734375 13.09375 -15.421875 C 13.632812 -14.109375 14.363281 -12.960938 15.28125 -11.984375 C 16.226562 -11.015625 17.332031 -10.242188 18.59375 -9.671875 C 19.851562 -9.097656 21.210938 -8.8125 22.671875 -8.8125 C 24.140625 -8.8125 25.507812 -9.097656 26.78125 -9.671875 C 28.050781 -10.242188 29.148438 -11.015625 30.078125 -11.984375 Z M 30.078125 -11.984375 "/></g></g></g></svg>